<svg xmlns="http://www.w3.org/2000/svg" xmlns:xlink="http://www.w3.org/1999/xlink" width="40" zoomAndPan="magnify" viewBox="0 0 30 30.000001" height="40" preserveAspectRatio="xMidYMid meet" version="1.0"><defs><clipPath id="5760933f66"><path d="M 0.484375 0 L 29.515625 0 L 29.515625 29.03125 L 0.484375 29.03125 Z M 0.484375 0 " clip-rule="nonzero"/></clipPath><clipPath id="80ca168d34"><path d="M 0.484375 0 L 29.515625 0 L 29.515625 29 L 0.484375 29 Z M 0.484375 0 " clip-rule="nonzero"/></clipPath><clipPath id="c38b3e6b42"><path d="M 0.484375 0 L 29.515625 0 L 29.515625 29.03125 L 0.484375 29.03125 Z M 0.484375 0 " clip-rule="nonzero"/></clipPath></defs><g clip-path="url(#5760933f66)"><path fill="#ffffff" d="M 0.484375 0 L 29.515625 0 L 29.515625 29.03125 L 0.484375 29.03125 Z M 0.484375 0 " fill-opacity="1" fill-rule="nonzero"/></g><g clip-path="url(#80ca168d34)"><path fill="#ffffff" d="M 0.484375 0.5 L 7.492188 0.5 M 11.496094 0.5 L 14.5 0.5 M 16.5 0.5 L 18.503906 0.5 M 19.503906 0.5 L 21.507812 0.5 M 22.507812 0.5 L 29.515625 0.5 M 0.484375 1.5 L 1.484375 1.5 M 6.492188 1.5 L 7.492188 1.5 M 9.492188 1.5 L 11.496094 1.5 M 12.496094 1.5 L 13.5 1.5 M 15.5 1.5 L 16.5 1.5 M 18.503906 1.5 L 19.503906 1.5 M 20.507812 1.5 L 21.507812 1.5 M 22.507812 1.5 L 23.507812 1.5 M 28.515625 1.5 L 29.515625 1.5 M 0.484375 2.503906 L 1.484375 2.503906 M 2.484375 2.503906 L 5.488281 2.503906 M 6.492188 2.503906 L 7.492188 2.503906 M 8.492188 2.503906 L 10.496094 2.503906 M 12.496094 2.503906 L 13.5 2.503906 M 14.5 2.503906 L 15.5 2.503906 M 16.5 2.503906 L 17.503906 2.503906 M 18.503906 2.503906 L 20.507812 2.503906 M 22.507812 2.503906 L 23.507812 2.503906 M 24.511719 2.503906 L 27.515625 2.503906 M 28.515625 2.503906 L 29.515625 2.503906 M 0.484375 3.503906 L 1.484375 3.503906 M 2.484375 3.503906 L 5.488281 3.503906 M 6.492188 3.503906 L 7.492188 3.503906 M 8.492188 3.503906 L 9.492188 3.503906 M 10.496094 3.503906 L 11.496094 3.503906 M 13.5 3.503906 L 17.503906 3.503906 M 20.507812 3.503906 L 21.507812 3.503906 M 22.507812 3.503906 L 23.507812 3.503906 M 24.511719 3.503906 L 27.515625 3.503906 M 28.515625 3.503906 L 29.515625 3.503906 M 0.484375 4.503906 L 1.484375 4.503906 M 2.484375 4.503906 L 5.488281 4.503906 M 6.492188 4.503906 L 7.492188 4.503906 M 8.492188 4.503906 L 9.492188 4.503906 M 10.496094 4.503906 L 12.496094 4.503906 M 16.5 4.503906 L 20.507812 4.503906 M 22.507812 4.503906 L 23.507812 4.503906 M 24.511719 4.503906 L 27.515625 4.503906 M 28.515625 4.503906 L 29.515625 4.503906 M 0.484375 5.507812 L 1.484375 5.507812 M 6.492188 5.507812 L 7.492188 5.507812 M 8.492188 5.507812 L 9.492188 5.507812 M 10.496094 5.507812 L 13.5 5.507812 M 14.5 5.507812 L 17.503906 5.507812 M 18.503906 5.507812 L 19.503906 5.507812 M 20.507812 5.507812 L 21.507812 5.507812 M 22.507812 5.507812 L 23.507812 5.507812 M 28.515625 5.507812 L 29.515625 5.507812 M 0.484375 6.507812 L 7.492188 6.507812 M 8.492188 6.507812 L 9.492188 6.507812 M 10.496094 6.507812 L 11.496094 6.507812 M 12.496094 6.507812 L 13.5 6.507812 M 14.5 6.507812 L 15.5 6.507812 M 16.5 6.507812 L 17.503906 6.507812 M 18.503906 6.507812 L 19.503906 6.507812 M 20.507812 6.507812 L 21.507812 6.507812 M 22.507812 6.507812 L 29.515625 6.507812 M 8.492188 7.507812 L 10.496094 7.507812 M 12.496094 7.507812 L 13.5 7.507812 M 14.5 7.507812 L 17.503906 7.507812 M 18.503906 7.507812 L 19.503906 7.507812 M 0.484375 8.507812 L 1.484375 8.507812 M 2.484375 8.507812 L 7.492188 8.507812 M 9.492188 8.507812 L 11.496094 8.507812 M 13.5 8.507812 L 16.5 8.507812 M 20.507812 8.507812 L 21.507812 8.507812 M 22.507812 8.507812 L 27.515625 8.507812 M 5.488281 9.511719 L 6.492188 9.511719 M 7.492188 9.511719 L 9.492188 9.511719 M 10.496094 9.511719 L 12.496094 9.511719 M 14.5 9.511719 L 15.5 9.511719 M 16.5 9.511719 L 17.503906 9.511719 M 20.507812 9.511719 L 25.511719 9.511719 M 28.515625 9.511719 L 29.515625 9.511719 M 1.484375 10.511719 L 4.488281 10.511719 M 5.488281 10.511719 L 7.492188 10.511719 M 8.492188 10.511719 L 9.492188 10.511719 M 13.5 10.511719 L 16.5 10.511719 M 17.503906 10.511719 L 18.503906 10.511719 M 20.507812 10.511719 L 21.507812 10.511719 M 23.507812 10.511719 L 25.511719 10.511719 M 0.484375 11.511719 L 1.484375 11.511719 M 2.484375 11.511719 L 3.488281 11.511719 M 5.488281 11.511719 L 6.492188 11.511719 M 8.492188 11.511719 L 9.492188 11.511719 M 10.496094 11.511719 L 13.5 11.511719 M 14.5 11.511719 L 15.5 11.511719 M 19.503906 11.511719 L 20.507812 11.511719 M 22.507812 11.511719 L 23.507812 11.511719 M 24.511719 11.511719 L 26.511719 11.511719 M 27.515625 11.511719 L 28.515625 11.511719 M 0.484375 12.515625 L 1.484375 12.515625 M 2.484375 12.515625 L 3.488281 12.515625 M 4.488281 12.515625 L 7.492188 12.515625 M 8.492188 12.515625 L 10.496094 12.515625 M 12.496094 12.515625 L 13.5 12.515625 M 15.5 12.515625 L 19.503906 12.515625 M 25.511719 12.515625 L 27.515625 12.515625 M 0.484375 13.515625 L 1.484375 13.515625 M 2.484375 13.515625 L 3.488281 13.515625 M 4.488281 13.515625 L 5.488281 13.515625 M 7.492188 13.515625 L 8.492188 13.515625 M 9.492188 13.515625 L 10.496094 13.515625 M 12.496094 13.515625 L 14.5 13.515625 M 16.5 13.515625 L 17.503906 13.515625 M 19.503906 13.515625 L 25.511719 13.515625 M 28.515625 13.515625 L 29.515625 13.515625 M 0.484375 14.515625 L 1.484375 14.515625 M 2.484375 14.515625 L 8.492188 14.515625 M 10.496094 14.515625 L 11.496094 14.515625 M 12.496094 14.515625 L 18.503906 14.515625 M 24.511719 14.515625 L 27.515625 14.515625 M 0.484375 15.515625 L 1.484375 15.515625 M 3.488281 15.515625 L 5.488281 15.515625 M 9.492188 15.515625 L 12.496094 15.515625 M 13.5 15.515625 L 14.5 15.515625 M 16.5 15.515625 L 17.503906 15.515625 M 19.503906 15.515625 L 20.507812 15.515625 M 24.511719 15.515625 L 25.511719 15.515625 M 27.515625 15.515625 L 28.515625 15.515625 M 0.484375 16.519531 L 2.484375 16.519531 M 4.488281 16.519531 L 7.492188 16.519531 M 8.492188 16.519531 L 11.496094 16.519531 M 12.496094 16.519531 L 13.5 16.519531 M 14.5 16.519531 L 15.5 16.519531 M 21.507812 16.519531 L 22.507812 16.519531 M 23.507812 16.519531 L 24.511719 16.519531 M 25.511719 16.519531 L 27.515625 16.519531 M 0.484375 17.519531 L 1.484375 17.519531 M 5.488281 17.519531 L 6.492188 17.519531 M 7.492188 17.519531 L 8.492188 17.519531 M 9.492188 17.519531 L 10.496094 17.519531 M 11.496094 17.519531 L 13.5 17.519531 M 18.503906 17.519531 L 25.511719 17.519531 M 26.511719 17.519531 L 27.515625 17.519531 M 28.515625 17.519531 L 29.515625 17.519531 M 0.484375 18.519531 L 1.484375 18.519531 M 2.484375 18.519531 L 4.488281 18.519531 M 5.488281 18.519531 L 8.492188 18.519531 M 9.492188 18.519531 L 13.5 18.519531 M 15.5 18.519531 L 17.503906 18.519531 M 20.507812 18.519531 L 21.507812 18.519531 M 22.507812 18.519531 L 23.507812 18.519531 M 26.511719 18.519531 L 27.515625 18.519531 M 0.484375 19.523438 L 1.484375 19.523438 M 7.492188 19.523438 L 8.492188 19.523438 M 9.492188 19.523438 L 11.496094 19.523438 M 12.496094 19.523438 L 13.5 19.523438 M 14.5 19.523438 L 17.503906 19.523438 M 18.503906 19.523438 L 20.507812 19.523438 M 22.507812 19.523438 L 24.511719 19.523438 M 27.515625 19.523438 L 28.515625 19.523438 M 0.484375 20.523438 L 1.484375 20.523438 M 2.484375 20.523438 L 3.488281 20.523438 M 4.488281 20.523438 L 7.492188 20.523438 M 8.492188 20.523438 L 10.496094 20.523438 M 17.503906 20.523438 L 18.503906 20.523438 M 20.507812 20.523438 L 25.511719 20.523438 M 26.511719 20.523438 L 29.515625 20.523438 M 8.492188 21.523438 L 9.492188 21.523438 M 11.496094 21.523438 L 12.496094 21.523438 M 13.5 21.523438 L 18.503906 21.523438 M 20.507812 21.523438 L 21.507812 21.523438 M 24.511719 21.523438 L 29.515625 21.523438 M 0.484375 22.523438 L 7.492188 22.523438 M 9.492188 22.523438 L 11.496094 22.523438 M 13.5 22.523438 L 16.5 22.523438 M 18.503906 22.523438 L 19.503906 22.523438 M 20.507812 22.523438 L 21.507812 22.523438 M 22.507812 22.523438 L 23.507812 22.523438 M 24.511719 22.523438 L 27.515625 22.523438 M 0.484375 23.527344 L 1.484375 23.527344 M 6.492188 23.527344 L 7.492188 23.527344 M 8.492188 23.527344 L 9.492188 23.527344 M 11.496094 23.527344 L 12.496094 23.527344 M 13.5 23.527344 L 14.5 23.527344 M 18.503906 23.527344 L 21.507812 23.527344 M 24.511719 23.527344 L 25.511719 23.527344 M 28.515625 23.527344 L 29.515625 23.527344 M 0.484375 24.527344 L 1.484375 24.527344 M 2.484375 24.527344 L 5.488281 24.527344 M 6.492188 24.527344 L 7.492188 24.527344 M 8.492188 24.527344 L 13.5 24.527344 M 14.5 24.527344 L 16.5 24.527344 M 17.503906 24.527344 L 18.503906 24.527344 M 20.507812 24.527344 L 25.511719 24.527344 M 26.511719 24.527344 L 27.515625 24.527344 M 0.484375 25.527344 L 1.484375 25.527344 M 2.484375 25.527344 L 5.488281 25.527344 M 6.492188 25.527344 L 7.492188 25.527344 M 8.492188 25.527344 L 9.492188 25.527344 M 10.496094 25.527344 L 12.496094 25.527344 M 13.5 25.527344 L 14.5 25.527344 M 15.5 25.527344 L 17.503906 25.527344 M 19.503906 25.527344 L 21.507812 25.527344 M 25.511719 25.527344 L 29.515625 25.527344 M 0.484375 26.53125 L 1.484375 26.53125 M 2.484375 26.53125 L 5.488281 26.53125 M 6.492188 26.53125 L 7.492188 26.53125 M 8.492188 26.53125 L 9.492188 26.53125 M 10.496094 26.53125 L 11.496094 26.53125 M 13.5 26.53125 L 14.5 26.53125 M 15.5 26.53125 L 17.503906 26.53125 M 19.503906 26.53125 L 21.507812 26.53125 M 22.507812 26.53125 L 23.507812 26.53125 M 24.511719 26.53125 L 28.515625 26.53125 M 0.484375 27.53125 L 1.484375 27.53125 M 6.492188 27.53125 L 7.492188 27.53125 M 9.492188 27.53125 L 10.496094 27.53125 M 12.496094 27.53125 L 13.5 27.53125 M 14.5 27.53125 L 17.503906 27.53125 M 20.507812 27.53125 L 22.507812 27.53125 M 23.507812 27.53125 L 24.511719 27.53125 M 25.511719 27.53125 L 26.511719 27.53125 M 27.515625 27.53125 L 28.515625 27.53125 M 0.484375 28.53125 L 7.492188 28.53125 M 8.492188 28.53125 L 11.496094 28.53125 M 12.496094 28.53125 L 13.5 28.53125 M 14.5 28.53125 L 16.5 28.53125 M 21.507812 28.53125 L 25.511719 28.53125 M 26.511719 28.53125 L 27.515625 28.53125 " fill-opacity="1" fill-rule="nonzero"/></g><g clip-path="url(#c38b3e6b42)"><path stroke-linecap="butt" transform="matrix(1.001112, 0, 0, 1.001112, 0.48387, 0.00000193548)" fill="none" stroke-linejoin="miter" d="M 0.000503956 0.499443 L 7.00053 0.499443 M 10.999988 0.499443 L 14.000557 0.499443 M 15.998334 0.499443 L 18.000014 0.499443 M 18.998903 0.499443 L 21.000583 0.499443 M 21.999472 0.499443 L 28.999498 0.499443 M 0.000503956 1.498331 L 0.999393 1.498331 M 6.001641 1.498331 L 7.00053 1.498331 M 8.998308 1.498331 L 10.999988 1.498331 M 11.998877 1.498331 L 13.001668 1.498331 M 14.999445 1.498331 L 15.998334 1.498331 M 18.000014 1.498331 L 18.998903 1.498331 M 20.001694 1.498331 L 21.000583 1.498331 M 21.999472 1.498331 L 22.998361 1.498331 M 28.000609 1.498331 L 28.999498 1.498331 M 0.000503956 2.501122 L 0.999393 2.501122 M 1.998282 2.501122 L 4.99885 2.501122 M 6.001641 2.501122 L 7.00053 2.501122 M 7.999419 2.501122 L 10.001099 2.501122 M 11.998877 2.501122 L 13.001668 2.501122 M 14.000557 2.501122 L 14.999445 2.501122 M 15.998334 2.501122 L 17.001125 2.501122 M 18.000014 2.501122 L 20.001694 2.501122 M 21.999472 2.501122 L 22.998361 2.501122 M 24.001152 2.501122 L 27.00172 2.501122 M 28.000609 2.501122 L 28.999498 2.501122 M 0.000503956 3.500011 L 0.999393 3.500011 M 1.998282 3.500011 L 4.99885 3.500011 M 6.001641 3.500011 L 7.00053 3.500011 M 7.999419 3.500011 L 8.998308 3.500011 M 10.001099 3.500011 L 10.999988 3.500011 M 13.001668 3.500011 L 17.001125 3.500011 M 20.001694 3.500011 L 21.000583 3.500011 M 21.999472 3.500011 L 22.998361 3.500011 M 24.001152 3.500011 L 27.00172 3.500011 M 28.000609 3.500011 L 28.999498 3.500011 M 0.000503956 4.4989 L 0.999393 4.4989 M 1.998282 4.4989 L 4.99885 4.4989 M 6.001641 4.4989 L 7.00053 4.4989 M 7.999419 4.4989 L 8.998308 4.4989 M 10.001099 4.4989 L 11.998877 4.4989 M 15.998334 4.4989 L 20.001694 4.4989 M 21.999472 4.4989 L 22.998361 4.4989 M 24.001152 4.4989 L 27.00172 4.4989 M 28.000609 4.4989 L 28.999498 4.4989 M 0.000503956 5.501691 L 0.999393 5.501691 M 6.001641 5.501691 L 7.00053 5.501691 M 7.999419 5.501691 L 8.998308 5.501691 M 10.001099 5.501691 L 13.001668 5.501691 M 14.000557 5.501691 L 17.001125 5.501691 M 18.000014 5.501691 L 18.998903 5.501691 M 20.001694 5.501691 L 21.000583 5.501691 M 21.999472 5.501691 L 22.998361 5.501691 M 28.000609 5.501691 L 28.999498 5.501691 M 0.000503956 6.50058 L 7.00053 6.50058 M 7.999419 6.50058 L 8.998308 6.50058 M 10.001099 6.50058 L 10.999988 6.50058 M 11.998877 6.50058 L 13.001668 6.50058 M 14.000557 6.50058 L 14.999445 6.50058 M 15.998334 6.50058 L 17.001125 6.50058 M 18.000014 6.50058 L 18.998903 6.50058 M 20.001694 6.50058 L 21.000583 6.50058 M 21.999472 6.50058 L 28.999498 6.50058 M 7.999419 7.499469 L 10.001099 7.499469 M 11.998877 7.499469 L 13.001668 7.499469 M 14.000557 7.499469 L 17.001125 7.499469 M 18.000014 7.499469 L 18.998903 7.499469 M 0.000503956 8.498358 L 0.999393 8.498358 M 1.998282 8.498358 L 7.00053 8.498358 M 8.998308 8.498358 L 10.999988 8.498358 M 13.001668 8.498358 L 15.998334 8.498358 M 20.001694 8.498358 L 21.000583 8.498358 M 21.999472 8.498358 L 27.00172 8.498358 M 4.99885 9.501149 L 6.001641 9.501149 M 7.00053 9.501149 L 8.998308 9.501149 M 10.001099 9.501149 L 11.998877 9.501149 M 14.000557 9.501149 L 14.999445 9.501149 M 15.998334 9.501149 L 17.001125 9.501149 M 20.001694 9.501149 L 25.00004 9.501149 M 28.000609 9.501149 L 28.999498 9.501149 M 0.999393 10.500038 L 3.999962 10.500038 M 4.99885 10.500038 L 7.00053 10.500038 M 7.999419 10.500038 L 8.998308 10.500038 M 13.001668 10.500038 L 15.998334 10.500038 M 17.001125 10.500038 L 18.000014 10.500038 M 20.001694 10.500038 L 21.000583 10.500038 M 22.998361 10.500038 L 25.00004 10.500038 M 0.000503956 11.498926 L 0.999393 11.498926 M 1.998282 11.498926 L 3.001073 11.498926 M 4.99885 11.498926 L 6.001641 11.498926 M 7.999419 11.498926 L 8.998308 11.498926 M 10.001099 11.498926 L 13.001668 11.498926 M 14.000557 11.498926 L 14.999445 11.498926 M 18.998903 11.498926 L 20.001694 11.498926 M 21.999472 11.498926 L 22.998361 11.498926 M 24.001152 11.498926 L 25.998929 11.498926 M 27.00172 11.498926 L 28.000609 11.498926 M 0.000503956 12.501717 L 0.999393 12.501717 M 1.998282 12.501717 L 3.001073 12.501717 M 3.999962 12.501717 L 7.00053 12.501717 M 7.999419 12.501717 L 10.001099 12.501717 M 11.998877 12.501717 L 13.001668 12.501717 M 14.999445 12.501717 L 18.998903 12.501717 M 25.00004 12.501717 L 27.00172 12.501717 M 0.000503956 13.500606 L 0.999393 13.500606 M 1.998282 13.500606 L 3.001073 13.500606 M 3.999962 13.500606 L 4.99885 13.500606 M 7.00053 13.500606 L 7.999419 13.500606 M 8.998308 13.500606 L 10.001099 13.500606 M 11.998877 13.500606 L 14.000557 13.500606 M 15.998334 13.500606 L 17.001125 13.500606 M 18.998903 13.500606 L 25.00004 13.500606 M 28.000609 13.500606 L 28.999498 13.500606 M 0.000503956 14.499495 L 0.999393 14.499495 M 1.998282 14.499495 L 7.999419 14.499495 M 10.001099 14.499495 L 10.999988 14.499495 M 11.998877 14.499495 L 18.000014 14.499495 M 24.001152 14.499495 L 27.00172 14.499495 M 0.000503956 15.498384 L 0.999393 15.498384 M 3.001073 15.498384 L 4.99885 15.498384 M 8.998308 15.498384 L 11.998877 15.498384 M 13.001668 15.498384 L 14.000557 15.498384 M 15.998334 15.498384 L 17.001125 15.498384 M 18.998903 15.498384 L 20.001694 15.498384 M 24.001152 15.498384 L 25.00004 15.498384 M 27.00172 15.498384 L 28.000609 15.498384 M 0.000503956 16.501175 L 1.998282 16.501175 M 3.999962 16.501175 L 7.00053 16.501175 M 7.999419 16.501175 L 10.999988 16.501175 M 11.998877 16.501175 L 13.001668 16.501175 M 14.000557 16.501175 L 14.999445 16.501175 M 21.000583 16.501175 L 21.999472 16.501175 M 22.998361 16.501175 L 24.001152 16.501175 M 25.00004 16.501175 L 27.00172 16.501175 M 0.000503956 17.500064 L 0.999393 17.500064 M 4.99885 17.500064 L 6.001641 17.500064 M 7.00053 17.500064 L 7.999419 17.500064 M 8.998308 17.500064 L 10.001099 17.500064 M 10.999988 17.500064 L 13.001668 17.500064 M 18.000014 17.500064 L 25.00004 17.500064 M 25.998929 17.500064 L 27.00172 17.500064 M 28.000609 17.500064 L 28.999498 17.500064 M 0.000503956 18.498953 L 0.999393 18.498953 M 1.998282 18.498953 L 3.999962 18.498953 M 4.99885 18.498953 L 7.999419 18.498953 M 8.998308 18.498953 L 13.001668 18.498953 M 14.999445 18.498953 L 17.001125 18.498953 M 20.001694 18.498953 L 21.000583 18.498953 M 21.999472 18.498953 L 22.998361 18.498953 M 25.998929 18.498953 L 27.00172 18.498953 M 0.000503956 19.501744 L 0.999393 19.501744 M 7.00053 19.501744 L 7.999419 19.501744 M 8.998308 19.501744 L 10.999988 19.501744 M 11.998877 19.501744 L 13.001668 19.501744 M 14.000557 19.501744 L 17.001125 19.501744 M 18.000014 19.501744 L 20.001694 19.501744 M 21.999472 19.501744 L 24.001152 19.501744 M 27.00172 19.501744 L 28.000609 19.501744 M 0.000503956 20.500633 L 0.999393 20.500633 M 1.998282 20.500633 L 3.001073 20.500633 M 3.999962 20.500633 L 7.00053 20.500633 M 7.999419 20.500633 L 10.001099 20.500633 M 17.001125 20.500633 L 18.000014 20.500633 M 20.001694 20.500633 L 25.00004 20.500633 M 25.998929 20.500633 L 28.999498 20.500633 M 7.999419 21.499521 L 8.998308 21.499521 M 10.999988 21.499521 L 11.998877 21.499521 M 13.001668 21.499521 L 18.000014 21.499521 M 20.001694 21.499521 L 21.000583 21.499521 M 24.001152 21.499521 L 28.999498 21.499521 M 0.000503956 22.49841 L 7.00053 22.49841 M 8.998308 22.49841 L 10.999988 22.49841 M 13.001668 22.49841 L 15.998334 22.49841 M 18.000014 22.49841 L 18.998903 22.49841 M 20.001694 22.49841 L 21.000583 22.49841 M 21.999472 22.49841 L 22.998361 22.49841 M 24.001152 22.49841 L 27.00172 22.49841 M 0.000503956 23.501201 L 0.999393 23.501201 M 6.001641 23.501201 L 7.00053 23.501201 M 7.999419 23.501201 L 8.998308 23.501201 M 10.999988 23.501201 L 11.998877 23.501201 M 13.001668 23.501201 L 14.000557 23.501201 M 18.000014 23.501201 L 21.000583 23.501201 M 24.001152 23.501201 L 25.00004 23.501201 M 28.000609 23.501201 L 28.999498 23.501201 M 0.000503956 24.50009 L 0.999393 24.50009 M 1.998282 24.50009 L 4.99885 24.50009 M 6.001641 24.50009 L 7.00053 24.50009 M 7.999419 24.50009 L 13.001668 24.50009 M 14.000557 24.50009 L 15.998334 24.50009 M 17.001125 24.50009 L 18.000014 24.50009 M 20.001694 24.50009 L 25.00004 24.50009 M 25.998929 24.50009 L 27.00172 24.50009 M 0.000503956 25.498979 L 0.999393 25.498979 M 1.998282 25.498979 L 4.99885 25.498979 M 6.001641 25.498979 L 7.00053 25.498979 M 7.999419 25.498979 L 8.998308 25.498979 M 10.001099 25.498979 L 11.998877 25.498979 M 13.001668 25.498979 L 14.000557 25.498979 M 14.999445 25.498979 L 17.001125 25.498979 M 18.998903 25.498979 L 21.000583 25.498979 M 25.00004 25.498979 L 28.999498 25.498979 M 0.000503956 26.50177 L 0.999393 26.50177 M 1.998282 26.50177 L 4.99885 26.50177 M 6.001641 26.50177 L 7.00053 26.50177 M 7.999419 26.50177 L 8.998308 26.50177 M 10.001099 26.50177 L 10.999988 26.50177 M 13.001668 26.50177 L 14.000557 26.50177 M 14.999445 26.50177 L 17.001125 26.50177 M 18.998903 26.50177 L 21.000583 26.50177 M 21.999472 26.50177 L 22.998361 26.50177 M 24.001152 26.50177 L 28.000609 26.50177 M 0.000503956 27.500659 L 0.999393 27.500659 M 6.001641 27.500659 L 7.00053 27.500659 M 8.998308 27.500659 L 10.001099 27.500659 M 11.998877 27.500659 L 13.001668 27.500659 M 14.000557 27.500659 L 17.001125 27.500659 M 20.001694 27.500659 L 21.999472 27.500659 M 22.998361 27.500659 L 24.001152 27.500659 M 25.00004 27.500659 L 25.998929 27.500659 M 27.00172 27.500659 L 28.000609 27.500659 M 0.000503956 28.499548 L 7.00053 28.499548 M 7.999419 28.499548 L 10.999988 28.499548 M 11.998877 28.499548 L 13.001668 28.499548 M 14.000557 28.499548 L 15.998334 28.499548 M 21.000583 28.499548 L 25.00004 28.499548 M 25.998929 28.499548 L 27.00172 28.499548 " stroke="#000000" stroke-width="1" stroke-opacity="1" stroke-miterlimit="4"/></g></svg>